<?xml version="1.0" standalone="no"?>
<!DOCTYPE svg PUBLIC "-//W3C//DTD SVG 20010904//EN"
 "http://www.w3.org/TR/2001/REC-SVG-20010904/DTD/svg10.dtd">
<svg version="1.0" xmlns="http://www.w3.org/2000/svg"
 width="206.000000pt" height="200.000000pt" viewBox="0 0 206.000000 200.000000"
 preserveAspectRatio="xMidYMid meet">

<g transform="translate(0.000000,200.000000) scale(0.100000,-0.100000)"
fill="#000000" stroke="none">
<path d="M1204 1395 c-61 -61 -98 -184 -129 -430 -9 -71 -18 -138 -21 -147 -5
-18 -63 -58 -83 -58 -15 0 -14 58 5 158 8 46 13 90 10 98 -3 8 -18 14 -32 14
-15 0 -36 7 -46 17 -16 14 -24 14 -59 4 -108 -33 -206 -218 -165 -315 28 -68
102 -79 178 -25 18 13 33 18 35 12 17 -51 81 -63 133 -25 l29 22 33 -20 c18
-11 51 -22 74 -26 41 -6 66 2 222 71 42 19 39 20 47 -12 10 -43 24 -53 72 -53
43 0 110 27 146 58 16 15 20 13 48 -21 43 -52 88 -51 185 3 71 39 72 40 76 85
2 25 1 44 -2 43 -3 -2 -30 -20 -61 -41 -67 -45 -118 -57 -142 -32 -13 13 -17
35 -17 102 0 77 3 90 25 119 25 32 28 33 108 36 75 3 82 5 85 24 4 25 -19 34
-86 34 l-42 0 30 53 c39 70 47 131 23 176 -54 102 -133 46 -190 -136 l-25 -83
-37 0 c-50 0 -81 -10 -81 -26 0 -7 -12 -19 -27 -26 -23 -11 -32 -28 -53 -98
-14 -47 -28 -90 -32 -96 -10 -16 -88 -68 -93 -63 -2 3 2 23 10 44 41 116 -14
233 -95 203 -14 -5 -34 -17 -44 -26 -11 -9 1 13 27 49 73 104 97 163 97 242 0
59 -3 71 -25 92 -32 33 -78 33 -111 0z m61 -103 c-1 -42 -11 -72 -55 -159 -30
-58 -56 -101 -58 -95 -5 16 45 218 68 269 26 59 45 52 45 -15z m573 -31 c4
-24 -61 -171 -76 -171 -5 0 -11 3 -14 6 -9 8 30 144 48 172 18 28 38 24 42 -7z
m-212 -217 l29 -6 0 -116 -1 -116 -47 -32 c-84 -58 -95 -26 -51 142 14 55 26
107 27 117 1 19 3 19 43 11z m-726 -58 c0 -3 -9 -44 -21 -93 -29 -124 -61
-171 -95 -142 -41 34 14 190 78 226 24 13 38 16 38 9z m380 -51 c12 -32 -4
-122 -28 -154 -22 -30 -64 -45 -98 -37 -21 6 -25 11 -20 34 2 15 8 48 11 74 8
65 45 108 91 108 28 0 36 -5 44 -25z"/>
<path d="M318 1346 c-154 -42 -207 -179 -106 -273 13 -13 75 -51 138 -86 122
-68 160 -106 160 -160 0 -38 -52 -88 -107 -105 -83 -25 -178 -9 -213 36 -18
22 -21 38 -18 87 3 56 2 60 -20 63 -32 5 -70 -32 -78 -75 -9 -47 20 -117 60
-148 72 -55 206 -72 315 -40 68 21 135 84 150 143 26 96 -28 174 -172 248
-115 58 -152 86 -165 121 -13 38 0 69 40 93 27 17 46 20 110 18 65 -3 80 -7
102 -27 32 -30 33 -57 5 -115 -38 -76 -3 -102 56 -43 93 93 48 221 -92 263
-56 17 -102 17 -165 0z"/>
<path d="M1530 1210 c-22 -22 -27 -69 -8 -88 17 -17 84 -15 102 3 25 25 29 54
12 80 -21 32 -77 34 -106 5z"/>
</g>
</svg>
